<svg width="40" height="40" viewBox="0 0 40 40" fill="none" xmlns="http://www.w3.org/2000/svg">
<path d="M0 10C0 4.47715 4.47715 0 10 0H30C35.5228 0 40 4.47715 40 10V30C40 35.5228 35.5228 40 30 40H10C4.47715 40 0 35.5228 0 30V10Z" fill="#E6E6FF"/>
<path fill-rule="evenodd" clip-rule="evenodd" d="M28.1818 10C28.6343 10 29 10.3558 29 10.7941V28.2647C29 28.7031 28.6343 29.0588 28.1818 29.0588H11.8182C11.3657 29.0588 11 28.7031 11 28.2647V10.7941C11 10.3558 11.3657 10 11.8182 10H28.1818ZM26.5455 26.6765V12.3824H24.0909V14.7647H21.6364C21.6364 13.8872 20.9041 13.1765 20 13.1765C19.0959 13.1765 18.3636 13.8872 18.3636 14.7647H15.9091V12.3824H13.4545V26.6765H26.5455ZM19.1604 23.7647C18.9455 23.7647 18.7306 23.6838 18.5668 23.5229L16.2941 21.2885L17.4813 20.1214L19.1604 21.7722L22.5187 18.4706L23.7059 19.6377L19.754 23.5229C19.5903 23.6838 19.3754 23.7647 19.1604 23.7647Z" fill="#5855FA"/>
</svg>
