<svg width="78" height="78" viewBox="0 0 78 78" fill="none" xmlns="http://www.w3.org/2000/svg">
<path d="M0 74.6086C0 76.4823 1.51761 77.9999 3.3913 77.9999H74.6087C76.4824 77.9999 78 76.4823 78 74.6086V23.739H0V74.6086Z" fill="#F2F2F2"/>
<path d="M74.6087 6.78271H3.3913C1.51761 6.78271 0 8.30032 0 10.174V23.7392H78V10.174C78 8.30032 76.4824 6.78271 74.6087 6.78271Z" fill="#FF6961"/>
<path d="M15.261 15.2609V1.69565C15.261 0.759652 16.0206 0 16.9566 0H20.3479C21.2839 0 22.0436 0.759652 22.0436 1.69565V15.2609C22.0436 16.1969 21.2839 16.9565 20.3479 16.9565H16.9566C16.0206 16.9565 15.261 16.1969 15.261 15.2609Z" fill="#400300"/>
<path d="M55.9565 15.2609V1.69565C55.9565 0.759652 56.7162 0 57.6522 0H61.0435C61.9795 0 62.7392 0.759652 62.7392 1.69565V15.2609C62.7392 16.1969 61.9795 16.9565 61.0435 16.9565H57.6522C56.7162 16.9565 55.9565 16.1969 55.9565 15.2609Z" fill="#400300"/>
<path d="M49.1739 47.4784H40.6956V39.0001C40.6956 38.0641 39.9376 37.3044 38.9999 37.3044C38.0622 37.3044 37.3043 38.0641 37.3043 39.0001V47.4784H28.826C27.8883 47.4784 27.1304 48.238 27.1304 49.174C27.1304 50.11 27.8883 50.8697 28.826 50.8697H37.3043V59.3479C37.3043 60.2839 38.0622 61.0436 38.9999 61.0436C39.9376 61.0436 40.6956 60.2839 40.6956 59.3479V50.8697H49.1739C50.1115 50.8697 50.8695 50.11 50.8695 49.174C50.8695 48.238 50.1115 47.4784 49.1739 47.4784Z" fill="#70B5FF"/>
</svg>
