<svg width="40" height="40" viewBox="0 0 40 40" fill="none" xmlns="http://www.w3.org/2000/svg">
<path d="M0 10C0 4.47715 4.47715 0 10 0H30C35.5228 0 40 4.47715 40 10V30C40 35.5228 35.5228 40 30 40H10C4.47715 40 0 35.5228 0 30V10Z" fill="#F6E6FF"/>
<path d="M27 28H13V17H27V28ZM24 10V12H16V10H14V12H13C12.4696 12 11.9609 12.2107 11.5858 12.5858C11.2107 12.9609 11 13.4696 11 14V28C11 28.5304 11.2107 29.0391 11.5858 29.4142C11.9609 29.7893 12.4696 30 13 30H27C27.5304 30 28.0391 29.7893 28.4142 29.4142C28.7893 29.0391 29 28.5304 29 28V14C29 13.4696 28.7893 12.9609 28.4142 12.5858C28.0391 12.2107 27.5304 12 27 12H26V10H24ZM18.88 21H15.27L18.19 23.11L17.08 26.56L20 24.43L22.92 26.56L21.8 23.12L24.72 21H21.12L20 17.56L18.88 21Z" fill="#B92EFF"/>
</svg>
