<svg width="20" height="19" viewBox="0 0 20 19" fill="none" xmlns="http://www.w3.org/2000/svg">
<path d="M16.3636 0L11.8182 4.63415V14.8293L16.3636 10.6585V0ZM18.1818 3.70732V16.2195C17.1818 15.8951 16.0909 15.7561 15 15.7561C13.4545 15.7561 11.2273 16.3585 10 17.1463V4.63415C8.68182 3.61463 6.77273 3.2439 5 3.2439C3.22727 3.2439 1.31818 3.61463 0 4.63415V18.2122C0 18.4439 0.227273 18.6756 0.454545 18.6756C0.545455 18.6756 0.590909 18.6293 0.681818 18.6293C1.90909 18.0268 3.68182 17.6098 5 17.6098C6.77273 17.6098 8.68182 17.9805 10 19C11.2273 18.2122 13.4545 17.6098 15 17.6098C16.5 17.6098 18.0455 17.8878 19.3182 18.5829C19.4091 18.6293 19.4545 18.6293 19.5455 18.6293C19.7727 18.6293 20 18.3976 20 18.1659V4.63415C19.4545 4.21707 18.8636 3.93902 18.1818 3.70732ZM8.18182 16.1361C7.04545 15.8395 5.90909 15.7561 5 15.7561C4.03636 15.7561 2.89091 15.9322 1.81818 16.2195V5.68146C2.64545 5.31073 3.76364 5.09756 5 5.09756C6.23636 5.09756 7.35455 5.31073 8.18182 5.68146V16.1361Z" fill="currentColor"/>
</svg>
