<svg width="24" height="24" viewBox="0 0 24 24" fill="none" xmlns="http://www.w3.org/2000/svg">
<path d="M13.6545 18.1442H9.66383V21H6.54067V18.1442H4V15.6346H6.54067V14.3118H4V11.8022H6.54067V3H13.4438C15.4351 3 17.0256 3.51923 18.2153 4.55769C19.4051 5.58791 20 6.96017 20 8.67445C20 10.4217 19.434 11.794 18.3021 12.7912C17.1702 13.7802 15.5962 14.2871 13.5802 14.3118H9.66383V15.6346H13.6545V18.1442ZM9.66383 11.8022H13.3943C14.5179 11.8022 15.3772 11.5426 15.9721 11.0234C16.567 10.5041 16.8644 9.7294 16.8644 8.69918C16.8644 7.7761 16.5711 7.02198 15.9845 6.43681C15.4061 5.85165 14.6047 5.5467 13.5802 5.52198H9.66383V11.8022Z" fill="#6E6E6E"/>
</svg>
