<svg width="20" height="20" viewBox="0 0 20 20" fill="none" xmlns="http://www.w3.org/2000/svg">
<path fill-rule="evenodd" clip-rule="evenodd" d="M16.7406 0.114322C16.943 0.0346478 17.1592 -0.00409283 17.3767 0.000341943C17.815 -0.00489729 18.2378 0.162764 18.5533 0.467009C18.8618 0.781672 19.0345 1.20472 19.0345 1.64534C19.0345 2.08596 18.8618 2.50901 18.5533 2.82368L17.67 3.70784C17.5919 3.78596 17.4859 3.82984 17.3754 3.82984C17.2649 3.82984 17.159 3.78596 17.0808 3.70784L15.3133 1.93784C15.2352 1.85971 15.1913 1.75374 15.1913 1.64326C15.1913 1.53277 15.2352 1.42681 15.3133 1.34868L16.1975 0.464509C16.3536 0.313021 16.5382 0.193996 16.7406 0.114322ZM10.0567 12.7212C10.3621 12.6531 10.6421 12.5 10.8642 12.2795L16.3108 6.83284C16.3399 6.80367 16.377 6.78379 16.4174 6.77569C16.4578 6.7676 16.4996 6.77165 16.5377 6.78735C16.5758 6.80305 16.6084 6.82968 16.6313 6.86388C16.6543 6.89808 16.6666 6.93831 16.6667 6.9795V16.6503C16.6667 17.3395 16.3929 18.0004 15.9056 18.4876C15.4183 18.9749 14.7575 19.2487 14.0683 19.2487H2.60083C2.25944 19.2491 1.92132 19.1822 1.60579 19.0519C1.29026 18.9216 1.00352 18.7303 0.761968 18.4891C0.520415 18.2478 0.328786 17.9613 0.198041 17.646C0.0672964 17.3306 0 16.9926 0 16.6512V5.18034C0 4.83891 0.0672905 4.50083 0.198025 4.18542C0.32876 3.87001 0.520375 3.58346 0.761918 3.34215C1.00346 3.10084 1.29019 2.9095 1.60573 2.77907C1.92126 2.64864 2.25941 2.58167 2.60083 2.582H11.8083C11.8495 2.58209 11.8898 2.59439 11.924 2.61734C11.9582 2.64029 11.9848 2.67286 12.0005 2.71094C12.0162 2.74902 12.0202 2.7909 12.0121 2.83129C12.004 2.87167 11.9842 2.90875 11.955 2.93784L6.73917 8.15534C6.5184 8.37688 6.36521 8.65666 6.2975 8.962C6.2675 9.02034 5.19167 11.6603 5.19167 11.6603C5.07055 11.9632 5.04098 12.2949 5.1066 12.6145C5.17222 12.934 5.33016 13.2272 5.56083 13.4578C5.79416 13.6842 6.08734 13.8392 6.40581 13.9044C6.72428 13.9697 7.05478 13.9425 7.35833 13.8262L7.46854 13.7813L7.46887 13.7812L7.47075 13.7804C7.97496 13.5752 10.0056 12.7489 10.0567 12.7212ZM14.3992 2.85034C14.3194 2.77534 14.2141 2.73358 14.1046 2.73358C13.9951 2.73358 13.8897 2.77534 13.81 2.85034L8.50749 8.15451C8.42938 8.23264 8.3855 8.3386 8.3855 8.44909C8.3855 8.55957 8.42938 8.66554 8.50749 8.74367L10.275 10.5112C10.3531 10.5893 10.4591 10.6332 10.5696 10.6332C10.6801 10.6332 10.786 10.5893 10.8642 10.5112L16.1675 5.20784C16.2456 5.1297 16.2895 5.02374 16.2895 4.91326C16.2895 4.80277 16.2456 4.69681 16.1675 4.61867L14.3992 2.85034ZM9.58461 11.5366C9.54023 11.5896 9.48337 11.6307 9.41916 11.6562L6.89249 12.6662C6.81677 12.6965 6.73382 12.7039 6.65392 12.6875C6.57403 12.6711 6.50069 12.6317 6.44302 12.574C6.38535 12.5163 6.34587 12.443 6.32948 12.3631C6.31309 12.2832 6.32051 12.2002 6.35082 12.1245L7.36249 9.59369C7.38858 9.53027 7.42991 9.47428 7.48282 9.43067C7.53574 9.38706 7.59859 9.35718 7.66582 9.34369C7.73341 9.32992 7.80335 9.33314 7.86938 9.35306C7.93542 9.37299 7.99547 9.409 8.04416 9.45785L9.55916 10.9737C9.60814 11.0224 9.64422 11.0826 9.66416 11.1488C9.6841 11.2149 9.68727 11.285 9.67338 11.3527C9.6595 11.4204 9.62899 11.4836 9.58461 11.5366Z" fill="currentColor"/>
</svg>
