<svg width="20" height="20" viewBox="0 0 20 20" fill="none" xmlns="http://www.w3.org/2000/svg">
<path fill-rule="evenodd" clip-rule="evenodd" d="M9.73298 2.58934L2.03238 8.82511C1.90556 8.92741 1.75914 9.00388 1.60173 9.05002C1.44432 9.09617 1.27908 9.11106 1.11571 9.09383C0.952338 9.0766 0.794128 9.02759 0.650362 8.94967C0.506595 8.87176 0.380167 8.76651 0.278497 8.64011C0.0696546 8.38087 -0.0277909 8.05213 0.00684648 7.72368C0.0414838 7.39524 0.205477 7.09294 0.464012 6.88096L8.16035 0.645191C8.67691 0.228103 9.32557 0 9.99509 0C10.6646 0 11.3133 0.228103 11.8298 0.645191L19.5304 6.88096C19.7889 7.09294 19.9529 7.39524 19.9876 7.72368C20.0222 8.05213 19.9248 8.38087 19.7159 8.64011C19.6144 8.76732 19.4878 8.87327 19.3436 8.95169C19.1995 9.03012 19.0408 9.07942 18.8768 9.09667C18.7129 9.11392 18.547 9.09877 18.3892 9.05213C18.2313 9.00548 18.0846 8.92828 17.9578 8.82511L10.2572 2.58934C10.1835 2.52958 10.0908 2.49688 9.99509 2.49688C9.89939 2.49688 9.80669 2.52958 9.73298 2.58934ZM18.7441 12.5001V18.3334C18.7484 18.7706 18.5754 19.1917 18.263 19.5041C17.9506 19.8166 17.5244 19.9949 17.0779 20H12.4944C12.2711 19.9976 12.058 19.9085 11.9017 19.7522C11.7455 19.5959 11.659 19.3853 11.6613 19.1667V14.5834C11.6634 14.3648 11.5768 14.1543 11.4206 13.9981C11.2645 13.8419 11.0514 13.7527 10.8282 13.7501H9.16196C8.93874 13.7527 8.72569 13.8419 8.56952 13.9981C8.41335 14.1543 8.3268 14.3648 8.32884 14.5834V19.1667C8.33111 19.3853 8.24464 19.5959 8.08842 19.7522C7.9322 19.9085 7.71902 19.9976 7.49573 20H2.9123C2.46578 19.9949 2.03955 19.8166 1.72717 19.5041C1.41478 19.1917 1.24175 18.7706 1.24606 18.3334V12.5001C1.25398 12.2501 1.31348 12.0043 1.42097 11.7775C1.52847 11.5506 1.68173 11.3474 1.87154 11.1801L8.93475 5.34182C9.23141 5.09611 9.60739 4.96129 9.99593 4.96129C10.3845 4.96129 10.7605 5.09611 11.0571 5.34182L18.1203 11.1751C18.3104 11.3432 18.4637 11.5472 18.5709 11.775C18.6781 12.0027 18.737 12.2494 18.7441 12.5001Z" fill="currentColor"/>
</svg>
